<?xml version="1.0" standalone="no"?>
<!DOCTYPE svg PUBLIC "-//W3C//DTD SVG 20010904//EN"
 "http://www.w3.org/TR/2001/REC-SVG-20010904/DTD/svg10.dtd">
<svg version="1.0" xmlns="http://www.w3.org/2000/svg"
 width="800.000000pt" height="800.000000pt" viewBox="0 0 800.000000 800.000000"
 preserveAspectRatio="xMidYMid meet">
<metadata>
Created by potrace 1.14, written by Peter Selinger 2001-2017
</metadata>
<g transform="translate(0.000000,800.000000) scale(0.100000,-0.100000)"
fill="#000000" stroke="none">
<path d="M0 3995 l0 -3995 4000 0 4000 0 0 3995 0 3995 -4000 0 -4000 0 0
-3995z m1175 3152 c183 -61 297 -184 346 -374 15 -60 20 -111 20 -218 1 -375
-125 -577 -413 -662 -41 -13 -121 -17 -360 -20 l-308 -5 0 657 0 656 318 -3
c313 -4 318 -4 397 -31z m3345 -62 l0 -95 -75 0 -75 0 0 95 0 95 75 0 75 0 0
-95z m412 -291 l3 -386 215 206 215 205 103 1 c56 0 102 -1 102 -3 0 -2 -83
-79 -185 -171 -107 -98 -182 -173 -178 -180 4 -6 91 -137 193 -291 102 -154
190 -286 194 -292 5 -10 -15 -13 -91 -13 l-98 0 -160 245 c-88 135 -163 245
-166 245 -4 0 -39 -30 -78 -66 l-71 -66 0 -179 0 -179 -75 0 -75 0 0 655 0
655 75 0 75 0 2 -386z m-2589 9 c170 -80 258 -236 258 -458 0 -308 -176 -495
-465 -495 -127 0 -243 48 -325 135 -91 96 -125 195 -125 360 -1 218 81 369
243 450 73 37 115 44 236 42 100 -3 117 -6 178 -34z m1031 17 c48 -19 116 -75
116 -98 0 -4 4 -13 9 -21 6 -10 19 -2 51 33 23 25 68 58 99 73 52 26 65 28
171 27 125 0 160 -10 220 -61 18 -15 43 -50 56 -78 24 -50 24 -52 24 -437 l0
-388 -75 0 -75 0 0 328 c-1 180 -5 347 -9 371 -18 90 -77 134 -180 133 -111 0
-183 -43 -225 -132 -20 -42 -21 -63 -24 -372 l-3 -328 -74 0 -74 0 -3 358 c-3
386 -3 386 -60 439 -45 43 -163 48 -234 11 -42 -23 -91 -74 -114 -123 -19 -39
-20 -62 -20 -363 l0 -322 -80 0 -80 0 0 475 0 475 75 0 75 0 0 -67 1 -68 30
37 c86 105 266 149 403 98z m1146 -475 l0 -475 -75 0 -75 0 0 475 0 475 75 0
75 0 0 -475z m-3402 -1403 c159 -61 245 -167 267 -329 l7 -53 -85 0 -84 0 -7
41 c-15 93 -84 173 -177 205 -39 13 -81 18 -149 18 -141 -2 -221 -37 -262
-117 -29 -58 -30 -146 -2 -184 47 -63 108 -87 397 -156 223 -53 322 -109 385
-216 22 -38 27 -60 30 -137 6 -123 -12 -176 -85 -254 -227 -246 -771 -197
-914 81 -28 55 -49 132 -49 182 l0 37 80 0 79 0 6 -37 c23 -138 104 -223 245
-259 92 -23 256 -16 325 15 92 41 144 113 145 199 0 58 -20 101 -65 141 -52
46 -100 64 -261 101 -264 59 -353 92 -425 157 -69 62 -84 102 -84 218 1 88 4
106 27 151 51 98 119 155 234 194 116 41 318 41 422 2z m2570 -219 l3 -143 95
0 95 0 -3 -67 -3 -68 -92 -3 -93 -3 0 -319 c0 -374 -8 -350 117 -350 l73 0 0
-70 0 -70 -97 0 c-160 0 -220 29 -242 115 -7 27 -11 167 -11 369 l0 326 -80 0
-80 0 0 70 0 70 80 0 80 0 0 145 0 146 78 -3 77 -3 3 -142z m-667 -137 c60
-14 133 -51 161 -82 29 -34 60 -104 66 -150 l5 -44 -74 0 -74 0 -23 49 c-19
42 -31 54 -77 77 -95 46 -245 34 -304 -25 -32 -32 -29 -100 7 -134 38 -36 79
-52 244 -91 162 -39 196 -52 255 -95 59 -43 86 -100 87 -181 1 -82 -17 -132
-62 -182 -89 -99 -290 -143 -473 -104 -155 33 -244 120 -264 259 l-7 47 81 0
81 0 0 -29 c0 -40 39 -92 90 -121 37 -20 62 -25 140 -28 117 -5 173 9 217 53
27 27 33 40 33 78 0 88 -50 121 -268 172 -272 65 -352 130 -352 286 0 63 43
145 98 186 64 48 149 72 262 72 52 1 120 -5 151 -13z m1604 -21 c146 -71 228
-213 250 -437 l7 -68 -362 0 -362 0 7 -52 c14 -105 67 -187 150 -231 29 -15
64 -22 130 -25 83 -3 94 -1 145 25 57 29 97 76 107 126 5 27 6 27 84 27 l79 0
-6 -27 c-13 -61 -66 -153 -110 -192 -168 -148 -472 -133 -620 32 -55 61 -88
131 -108 229 -41 199 0 371 117 495 96 102 179 134 332 130 87 -2 108 -6 160
-32z m999 15 c48 -19 116 -75 116 -98 0 -4 4 -13 9 -21 6 -10 19 -2 51 33 23
25 68 58 99 73 51 25 66 28 166 28 94 0 117 -3 160 -23 61 -28 90 -55 118
-107 21 -39 22 -53 25 -437 l3 -398 -76 0 -75 0 0 308 c0 169 -5 336 -10 371
-16 110 -67 154 -179 153 -107 0 -177 -40 -224 -127 -21 -38 -22 -54 -25 -372
l-3 -333 -75 0 -74 0 0 319 c0 175 -5 343 -10 372 -19 99 -71 142 -174 142
-114 0 -207 -73 -241 -187 -12 -39 -15 -115 -15 -348 l0 -298 -75 0 -75 0 0
475 0 475 70 0 70 0 0 -65 c0 -36 4 -65 8 -65 5 0 18 13 30 29 28 39 95 84
152 104 66 23 187 22 254 -3z m1507 -9 c96 -37 158 -115 175 -219 l7 -42 -82
0 c-79 0 -81 1 -81 24 0 35 -47 86 -99 109 -84 37 -236 21 -293 -30 -26 -24
-33 -75 -14 -112 22 -41 88 -73 206 -101 234 -53 320 -92 370 -166 36 -54 41
-170 10 -242 -54 -125 -213 -192 -424 -179 -201 12 -335 112 -353 266 l-6 51
76 0 76 0 12 -42 c16 -61 74 -113 141 -128 75 -17 213 -9 262 15 70 34 95 109
57 171 -25 42 -100 76 -226 104 -170 37 -248 67 -301 113 -57 50 -74 88 -74
167 0 128 74 214 220 256 72 21 271 12 341 -15z m-5292 -369 c74 -207 137
-381 141 -385 4 -4 40 88 80 205 40 117 100 291 133 386 l59 172 83 0 82 0
-214 -556 c-117 -307 -230 -588 -250 -626 -40 -76 -85 -119 -142 -137 -42 -12
-111 -14 -160 -5 l-31 7 0 73 0 74 26 -10 c63 -24 146 -4 176 42 27 43 80 188
75 206 -3 12 -304 772 -364 920 -4 9 17 12 83 12 l89 0 134 -378z"/>
<path d="M640 6530 l0 -510 190 0 c206 0 264 11 349 64 134 85 200 262 188
501 -9 170 -41 262 -119 342 -83 86 -191 112 -450 113 l-158 0 0 -510z"/>
<path d="M2093 6699 c-152 -29 -243 -162 -243 -354 0 -218 114 -355 296 -355
123 0 218 67 266 189 32 81 32 251 0 332 -54 136 -186 214 -319 188z"/>
<path d="M4381 4459 c-111 -21 -182 -96 -210 -220 l-9 -39 275 0 275 0 -7 37
c-9 50 -47 122 -82 155 -57 55 -159 83 -242 67z"/>
</g>
</svg>
